<?xml version="1.0" encoding="utf-8"?>
<!-- Generator: Adobe Illustrator 19.0.0, SVG Export Plug-In . SVG Version: 6.00 Build 0)  -->
<svg version="1.1" id="Layer_1" xmlns="http://www.w3.org/2000/svg" xmlns:xlink="http://www.w3.org/1999/xlink" x="0px" y="0px"
	 viewBox="-720.9 257 95 95" style="enable-background:new -720.9 257 95 95;" xml:space="preserve">
<style type="text/css">
	.st0{fill:url(#SVGID_1_);}
	.st1{fill:url(#_Path__1_);}
</style>
<title>Artboard 3</title>
<g id="OBJECTS">
	
		<linearGradient id="SVGID_1_" gradientUnits="userSpaceOnUse" x1="-720.871" y1="492.5" x2="-625.871" y2="492.5" gradientTransform="matrix(1 0 0 -1 0 797)">
		<stop  offset="0.11" style="stop-color:#E2B75E"/>
		<stop  offset="0.49" style="stop-color:#FDDF8E"/>
		<stop  offset="0.89" style="stop-color:#D7A542"/>
	</linearGradient>
	<path class="st0" d="M-673.4,352c-26.2,0-47.5-21.3-47.5-47.5s21.3-47.5,47.5-47.5s47.5,21.3,47.5,47.5
		C-625.9,330.7-647.1,352-673.4,352z M-673.4,261.3c-23.9,0-43.3,19.4-43.3,43.3s19.4,43.3,43.3,43.3s43.3-19.4,43.3-43.3
		C-630.1,280.6-649.5,261.3-673.4,261.3z"/>
	
		<linearGradient id="_Path__1_" gradientUnits="userSpaceOnUse" x1="-683.721" y1="492.5" x2="-663.001" y2="492.5" gradientTransform="matrix(1 0 0 -1 0 797)">
		<stop  offset="0.11" style="stop-color:#E2B75E"/>
		<stop  offset="0.49" style="stop-color:#FDDF8E"/>
		<stop  offset="0.89" style="stop-color:#D7A542"/>
	</linearGradient>
	<path id="_Path_" class="st1" d="M-679,326.9h9v-22.6h6.3l0.7-7.6h-7v-4.3c0-1.8,0.4-2.5,2.1-2.5h4.9v-7.9h-6.2
		c-6.7,0-9.8,3-9.8,8.6v6h-4.7v7.7h4.7V326.9z"/>
</g>
</svg>
