<?xml version="1.0" encoding="utf-8"?>
<!-- Generator: Adobe Illustrator 19.0.0, SVG Export Plug-In . SVG Version: 6.00 Build 0)  -->
<svg version="1.1" id="Layer_1" xmlns="http://www.w3.org/2000/svg" xmlns:xlink="http://www.w3.org/1999/xlink" x="0px" y="0px"
	 viewBox="-385 219.1 95 95" style="enable-background:new -385 219.1 95 95;" xml:space="preserve">
<style type="text/css">
	.st0{fill:url(#SVGID_1_);}
	.st1{fill:url(#SVGID_2_);}
</style>
<title>Artboard 4</title>
<g id="OBJECTS">
	
		<linearGradient id="SVGID_1_" gradientUnits="userSpaceOnUse" x1="-385.0331" y1="530.35" x2="-290.0331" y2="530.35" gradientTransform="matrix(1 0 0 -1 0 797)">
		<stop  offset="0.11" style="stop-color:#E2B75E"/>
		<stop  offset="0.49" style="stop-color:#FDDF8E"/>
		<stop  offset="0.89" style="stop-color:#D7A542"/>
	</linearGradient>
	<path class="st0" d="M-337.5,314.1c-26.2,0-47.5-21.3-47.5-47.5s21.3-47.5,47.5-47.5c26.2,0,47.5,21.3,47.5,47.5
		C-290.1,292.9-311.3,314.1-337.5,314.1z M-337.5,223.3c-23.9,0-43.3,19.4-43.3,43.3c0,23.9,19.4,43.3,43.3,43.3
		c23.9,0,43.3-19.4,43.3-43.3C-294.3,242.7-313.6,223.4-337.5,223.3z"/>
	
		<linearGradient id="SVGID_2_" gradientUnits="userSpaceOnUse" x1="-367.2631" y1="529.86" x2="-310.5904" y2="529.86" gradientTransform="matrix(1 0 0 -1 0 797)">
		<stop  offset="0.11" style="stop-color:#E2B75E"/>
		<stop  offset="0.49" style="stop-color:#FFEEAD"/>
		<stop  offset="0.89" style="stop-color:#D7A542"/>
	</linearGradient>
	<path class="st1" d="M-311.9,252.6c0.4-1.3,0-2.3-1.9-2.3h-6.2c-1.2-0.1-2.3,0.6-2.7,1.8c0,0-3.1,7.7-7.6,12.7
		c-1.4,1.4-2.1,1.9-2.9,1.9c-0.4,0-1-0.5-1.1-1.8v-12.3c0-1.6-0.4-2.3-1.7-2.3h-9.8c-0.8-0.1-1.5,0.5-1.6,1.3c0,0,0,0.1,0,0.1
		c0,1.5,2.2,1.8,2.5,6v9.1c0,2-0.4,2.4-1.2,2.4c-2.1,0-7.2-7.7-10.3-16.6c-0.6-1.7-1.2-2.4-2.8-2.4h-6.2c-1.8,0-2.1,0.8-2.1,1.8
		c0,1.6,2.1,9.8,9.8,20.5c5.1,7.4,12.3,11.3,18.9,11.3c3.9,0,4.4-0.9,4.3-2.4V276c0.1-1.8,0.5-2.1,1.7-2.1c0.9,0,2.5,0.5,6.2,4
		c4.2,4.2,4.9,6.1,7.3,6.1h6.2c1.8,0,2.7-0.9,2.1-2.6c-0.5-1.7-2.5-4.3-5.2-7.3c-1.4-1.7-3.6-3.6-4.3-4.5c-0.9-1.2-0.6-1.7,0-2.8
		C-320.2,266.9-312.7,256.2-311.9,252.6L-311.9,252.6z"/>
</g>
</svg>
